<?xml version="1.0" encoding="UTF-8" standalone="no"?>
<!-- Created with Inkscape (http://www.inkscape.org/) -->

<svg
   viewBox="0 0 110.8079 110.8079"
   version="1.1"
   id="anim_logo"
   xml:space="preserve"
   inkscape:version="1.2.2 (b0a8486, 2022-12-01)"
   sodipodi:docname="strathLg.svg"
   xmlns:inkscape="http://www.inkscape.org/namespaces/inkscape"
   xmlns:sodipodi="http://sodipodi.sourceforge.net/DTD/sodipodi-0.dtd"
   xmlns="http://www.w3.org/2000/svg"
   xmlns:svg="http://www.w3.org/2000/svg"><sodipodi:namedview
     id="namedview7"
     pagecolor="#ffffff"
     bordercolor="#000000"
     borderopacity="0.25"
     inkscape:showpageshadow="2"
     inkscape:pageopacity="0.0"
     inkscape:pagecheckerboard="0"
     inkscape:deskcolor="#d1d1d1"
     inkscape:document-units="mm"
     showgrid="false"
     inkscape:zoom="0.83572489"
     inkscape:cx="93.930433"
     inkscape:cy="256.06513"
     inkscape:window-width="1280"
     inkscape:window-height="714"
     inkscape:window-x="0"
     inkscape:window-y="23"
     inkscape:window-maximized="0"
     inkscape:current-layer="g2153" /><defs
     id="defs2" /><g
     inkscape:label="Layer 1"
     inkscape:groupmode="layer"
     id="layer1"
     transform="translate(-56.613871,-113.86444)"><g
       id="g1157"><g
         id="g2153"><circle
           style="fill:none;fill-opacity:0.822715;stroke:none;stroke-width:0.12794;stroke-linecap:round;stroke-dasharray:none;stroke-opacity:0.996078"
           id="circle1145"
           cx="112.01782"
           cy="169.26839"
           r="55.339981" /><path
           style="fill:none;fill-opacity:0.822715;stroke:none;stroke-width:0.1;stroke-linecap:round;stroke-dasharray:none;stroke-opacity:0.996078"
           d="m 112.05262,188.80405 c -9.4e-4,0.0202 -0.002,0.0403 -0.002,0.0605 7.1e-4,-0.0202 0.001,-0.0407 0.002,-0.0605 z"
           id="path2127" /><path
           style="fill:none;fill-opacity:0.822715;stroke:none;stroke-width:0.1;stroke-linecap:round;stroke-dasharray:none;stroke-opacity:0.996078"
           d="m 112.06062,188.68623 c -0.001,0.0147 -0.003,0.0293 -0.004,0.0439 9.5e-4,-0.015 0.003,-0.0292 0.004,-0.0439 z"
           id="path2125" /><path
           id="path1143"
           style="stroke:none;stroke-width:0.1;stroke-linecap:round;stroke-dasharray:none;stroke-opacity:0.996078"
           d="m 112.01772,126.01357 a 43.254726,43.254726 0 0 0 -43.25472,43.25472 43.254726,43.254726 0 0 0 43.25472,43.25473 43.254726,43.254726 0 0 0 43.25473,-43.25473 43.254726,43.254726 0 0 0 -43.25473,-43.25472 z m -19.187455,20.13882 h 37.812165 c -2.6877,1.82582 -3.99562,3.74425 -3.99562,5.84719 v 20.75791 c 0.0427,6.87309 -5.19039,8.47855 -6.72414,8.47855 l -3.50831,0.19482 c -2.93364,0 -3.76169,1.43595 -4.5806,3.21582 -0.45335,-1.6652 -1.18486,-3.27215 -4.33669,-3.27215 l -3.36207,-0.0413 c -5.058868,0 -7.07574,-5.17593 -7.114293,-8.08891 v -21.30051 c 0,-2.70555 -2.42676,-4.40407 -4.190442,-5.79138 z m 3.860746,39.59603 c 1.529684,1.24558 6.456619,-0.006 6.734469,0.80099 0.73546,0.46748 -0.39805,1.65772 -0.28267,2.63705 0.88698,0.17004 2.21793,0.29043 5.13302,0.23513 -0.17383,-0.41633 -0.34177,-0.81476 -0.6258,-1.56167 -0.15876,-0.63627 -0.44132,-1.38444 0.76688,-1.73477 1.9082,-0.44789 4.0332,-0.40792 6.39548,0.16588 0.89725,0.16743 0.96392,0.53823 0.71571,1.01182 -0.64567,1.06681 -0.70559,1.43014 -0.80098,1.83658 2.15215,0.85762 4.06151,0.69584 5.93349,0.37672 0.11574,-1.00608 -0.88784,-2.3965 -0.47077,-3.24941 0.8656,-0.79722 2.17779,1.42252 6.78149,0.47077 -0.76767,0.75235 -1.27834,1.31172 -1.3658,1.55391 0.36948,0.47255 0.82604,0.80036 1.3658,0.98909 -1.11037,0.81337 -1.78229,0.69489 -2.44894,0.56534 -0.51829,0.36864 -0.40224,1.3077 -0.37672,2.16576 0.17633,1.28189 -12.75659,1.0166 -12.33827,-0.28216 0.27829,-0.5627 0.25379,-1.44961 0.24185,-2.22105 l -1.08934,-0.0398 c 0.20959,-0.36471 0.12442,-0.65569 -0.0248,-0.93069 0.15055,0.33324 0.11047,0.70888 -0.0398,1.10897 -0.49437,0.41557 -0.31399,1.40959 -0.4532,2.12959 -0.0258,0.7936 -9.01347,0.91414 -11.416357,-0.0625 -0.1638,-0.0666 -0.297116,-0.19411 -0.438733,-0.30644 -0.08701,-0.44037 -0.0041,-0.57283 0.0987,-0.99064 0.145776,-0.59269 0.437223,-1.50167 0.548287,-2.17247 l -0.376722,1.13016 c -0.751023,0.19266 -1.3967,-0.10542 -1.977657,-0.70642 0.514886,-0.19045 0.813695,-0.52442 0.98857,-0.94154 -0.58946,-0.53614 -1.040232,-1.15922 -1.177189,-1.97818 z" /><path
           style="fill:none;fill-opacity:0.822715;stroke:none;stroke-width:0.1;stroke-linecap:round;stroke-dasharray:none;stroke-opacity:0.996078"
           d="m 108.35165,186.8679 c -0.55873,0.68815 0.6851,1.26397 1.91598,1.23026 0.45132,0.36202 0.36403,1.17286 -0.56472,1.23025 -4.80251,0.30081 -6.68129,-0.012 -8.95466,-0.24201 -1.126531,-0.14183 -1.385977,-0.9723 -0.907568,-1.18992 1.074428,-0.2959 2.753178,0.13337 3.105898,-1.02858"
           id="path1010"
           sodipodi:nodetypes="cccccc" /><path
           style="fill:none;fill-opacity:0.822715;stroke:none;stroke-width:0.1;stroke-linecap:round;stroke-dasharray:none;stroke-opacity:0.996078"
           d="m 114.69938,186.82385 c 0.55872,0.68815 -0.6851,1.26397 -1.91598,1.23026 -0.45132,0.36202 -0.36403,1.00032 0.56471,1.05771 3.95421,0.73215 6.63817,0.75004 9.88924,0.37625 0.63719,-0.0802 1.01641,-0.43136 1.08621,-0.76066 0.0536,-0.25289 -0.10023,-0.49289 -0.30805,-0.58742 -1.07443,-0.2959 -3.11262,-0.35548 -3.46534,-1.51743"
           id="path1066"
           sodipodi:nodetypes="ccccscc" /><path
           style="fill:#b3b3b3;fill-opacity:0.822715;stroke:rgb(199, 140, 22);stroke-width:0.1;stroke-linecap:round;stroke-dasharray:none;stroke-opacity:0.996078"
           d="m 124.34898,188.60122 c 0.33356,0.38202 0.10331,0.97745 0.0229,1.34246"
           id="path1068"
           sodipodi:nodetypes="cc" /><path
           style="fill:none;fill-opacity:0.822715;stroke:rgb(199, 140, 22);stroke-width:0.5;stroke-linecap:round;stroke-dasharray:none;stroke-opacity:0.996078"
           d="m 92.830265,146.17073 h 37.812165 c -2.6877,1.82582 -3.99562,3.74425 -3.99562,5.84719 v 20.75791 c 0.0427,6.87311 -5.19039,8.47855 -6.72414,8.47855 l -3.50831,0.19482 c -2.93364,0 -3.76169,1.43595 -4.5806,3.21582 -0.45335,-1.6652 -1.18486,-3.27215 -4.33669,-3.27215 l -3.36207,-0.0413 c -5.058875,0 -7.075735,-5.17593 -7.114295,-8.08891 v -21.30051 c 0,-2.70555 -2.42675,-4.40407 -4.19044,-5.79138 z"
           id="path2135" /><path
           style="fill:none;fill-opacity:0.822715;stroke:rgb(199, 140, 22);stroke-width:0.5;stroke-linecap:round;stroke-dasharray:none;stroke-opacity:0.996078"
           d="m 96.708716,185.73849 c 1.52968,1.24558 6.456624,-0.006 6.734474,0.80099 0.73546,0.46748 -0.39805,1.65772 -0.28267,2.63705 0.88698,0.17004 2.21792,0.29043 5.13302,0.23513 -0.17383,-0.41633 -0.34177,-0.81476 -0.6258,-1.56167 -0.15876,-0.63627 -0.44132,-1.38444 0.76688,-1.73477 1.9082,-0.44789 4.0332,-0.40792 6.39548,0.16588 0.89726,0.16743 0.96392,0.53823 0.71571,1.01182 -0.64568,1.06681 -0.70559,1.43014 -0.80098,1.83658 2.15215,0.85762 4.06151,0.69584 5.93349,0.37672 0.11574,-1.00608 -0.88784,-2.3965 -0.47077,-3.24941 0.86561,-0.79722 2.17778,1.42252 6.78149,0.47077 -0.76767,0.75235 -1.27834,1.31172 -1.3658,1.55391 0.36948,0.47255 0.82604,0.80036 1.3658,0.98909 -1.11037,0.81337 -1.78229,0.69489 -2.44894,0.56534 -0.51829,0.36864 -0.40224,1.3077 -0.37672,2.16576 0.17633,1.28189 -12.75659,1.0166 -12.33827,-0.28216 0.27829,-0.56271 0.25379,-1.44961 0.24185,-2.22105 l -1.08934,-0.0398 c 0.20959,-0.36471 0.12443,-0.65569 -0.0248,-0.93069 0.15055,0.33324 0.11046,0.70888 -0.0398,1.10897 -0.49437,0.41557 -0.31399,1.40959 -0.4532,2.12959 -0.0258,0.7936 -9.01347,0.91417 -11.416364,-0.0625 -0.1638,-0.0666 -0.29712,-0.19411 -0.43873,-0.30644 -0.087,-0.44037 -0.004,-0.57283 0.0987,-0.99064 0.14577,-0.59269 0.43722,-1.50167 0.54828,-2.17247 l -0.37672,1.13016 c -0.75102,0.19266 -1.3967,-0.10542 -1.97766,-0.70642 0.51489,-0.19045 0.8137,-0.52442 0.98857,-0.94154 -0.58946,-0.53614 -1.04023,-1.15922 -1.17719,-1.97818 z"
           id="path2137" /></g></g></g></svg>
